<svg width="158" height="34" viewBox="0 0 158 34" fill="none" xmlns="http://www.w3.org/2000/svg">
<path d="M49.037 10.4622C46.5851 10.4622 45.3592 12.8271 45.3592 17.5569V19.4314C45.3592 21.6776 45.6835 23.4414 46.3321 24.7227C46.9806 25.9881 47.9376 26.6209 49.2031 26.6209C50.9432 26.6209 52.5408 24.9283 53.9961 21.5431H54.4232L54.2571 26.8344H53.9961C53.9012 26.6604 53.8142 26.5418 53.7351 26.4785C53.656 26.3994 53.5374 26.3599 53.3792 26.3599C53.2368 26.3599 52.6674 26.4864 51.6708 26.7395C50.6742 26.9768 49.6619 27.0954 48.6336 27.0954C46.0552 27.0954 44.0542 26.3994 42.6305 25.0074C41.2227 23.6154 40.5187 21.5273 40.5187 18.7432C40.5187 15.9434 41.2543 13.7841 42.7254 12.2656C44.2124 10.747 46.2055 9.98768 48.7048 9.98768C49.6698 9.98768 50.611 10.1142 51.5284 10.3673C52.4617 10.6046 53.0075 10.7232 53.1657 10.7232C53.3238 10.7232 53.4425 10.6916 53.5216 10.6283C53.6007 10.5492 53.6877 10.4227 53.7826 10.2487H54.0436L54.2334 15.3976H53.8063C53.0945 13.8 52.3589 12.5819 51.5996 11.7435C50.8562 10.8893 50.002 10.4622 49.037 10.4622ZM65.2407 26.4073L63.5086 21.2821H58.8105L56.9834 26.4073H58.763V26.8582H55.1327V26.4073H56.2479L62.2985 10.1063H64.2441L70.2235 26.4073H71.315V26.8582H63.556V26.4073H65.2407ZM61.2544 14.5434L59.024 20.7601H63.3188L61.2544 14.5434ZM71.4891 10.2487H83.8275L84.0648 15.1841H83.6377C83.0524 13.4757 82.3722 12.313 81.5971 11.6961C80.8378 11.0792 79.6989 10.7707 78.1803 10.7707H77.5159V18.4822H78.5837C79.343 18.4822 79.9757 18.2054 80.4819 17.6518C80.9881 17.0981 81.3361 16.3388 81.5259 15.3739H81.8819V22.3973H81.4785C81.2254 21.2109 80.8695 20.3646 80.4107 19.8585C79.9678 19.3523 79.3588 19.0992 78.5837 19.0992H77.5159V26.3361H80.4582V26.8582H71.4891V26.3361H72.889V10.7707H71.4891V10.2487ZM85.0566 10.2487H97.395L97.6323 14.9468H97.2052C96.5408 13.3491 95.8448 12.2576 95.1172 11.6724C94.3895 11.0713 93.3218 10.7707 91.9139 10.7707H91.0834V18.1026H91.8902C92.6337 18.1026 93.2585 17.8258 93.7647 17.2721C94.2709 16.7027 94.6268 15.9434 94.8324 14.9943H95.1883V22.0177H94.785C94.5002 20.8313 94.1127 19.985 93.6223 19.4788C93.1478 18.9726 92.4913 18.7195 91.6529 18.7195H91.0834V26.3361H91.9851C93.4404 26.3361 94.6742 25.9011 95.6866 25.0311C96.7148 24.1611 97.4188 23.0459 97.7984 21.6855H98.273L98.0831 26.8582H85.0566V26.3361H86.4565V10.7707H85.0566V10.2487ZM103.035 10.2487H110.011C112.4 10.2487 114.18 10.5967 115.35 11.2927C116.521 11.9729 117.106 13.1988 117.106 14.9705C117.106 16.932 116.394 18.2845 114.97 19.028C113.642 19.7082 111.783 20.0483 109.394 20.0483H109.205V26.4073H112.171V26.8582H103.035V26.4073H104.578V10.6995H103.035V10.2487ZM109.205 10.6995V19.5974H109.703C110.652 19.5974 111.308 19.2732 111.672 18.6246C112.036 17.976 112.218 16.9241 112.218 15.4688V14.3299C112.218 12.9853 112.044 12.0441 111.696 11.5063C111.364 10.9684 110.747 10.6995 109.845 10.6995H109.205ZM124.875 26.4073L123.143 21.2821H118.445L116.618 26.4073H118.398V26.8582H114.767V26.4073H115.883L121.933 10.1063H123.879L129.858 26.4073H130.95V26.8582H123.191V26.4073H124.875ZM120.889 14.5434L118.659 20.7601H122.953L120.889 14.5434ZM138.105 26.5971C138.896 26.5971 139.592 26.3836 140.193 25.9565C140.81 25.5294 141.119 24.8887 141.119 24.0345C141.119 23.1645 140.787 22.5001 140.122 22.0414C139.474 21.5827 138.54 21.1872 137.322 20.855C136.12 20.507 135.242 20.2065 134.688 19.9534C134.151 19.7003 133.637 19.3681 133.146 18.9568C132.165 18.1342 131.675 16.8608 131.675 15.1366C131.675 13.7288 132.173 12.5186 133.17 11.5063C134.182 10.4939 135.558 9.98768 137.299 9.98768C138.137 9.98768 139.007 10.1142 139.909 10.3673C140.826 10.6046 141.396 10.7232 141.617 10.7232C141.838 10.7232 142.036 10.5651 142.21 10.2487H142.471L142.637 15.0417H142.258C141.498 13.6655 140.7 12.5661 139.861 11.7435C139.039 10.9052 138.137 10.486 137.156 10.486C136.191 10.486 135.44 10.7153 134.902 11.1741C134.364 11.617 134.095 12.2181 134.095 12.9774C134.095 13.7209 134.412 14.2982 135.044 14.7095C135.693 15.105 136.484 15.4293 137.417 15.6824C138.35 15.9355 138.959 16.1095 139.244 16.2044C139.545 16.2993 139.909 16.4337 140.336 16.6077C140.779 16.7659 141.135 16.9399 141.403 17.1298C141.688 17.3038 141.981 17.5331 142.281 17.8179C142.598 18.0868 142.843 18.3873 143.017 18.7195C143.444 19.4788 143.658 20.3805 143.658 21.4245C143.658 23.1329 143.12 24.5091 142.044 25.5531C140.984 26.5813 139.584 27.0954 137.844 27.0954C136.943 27.0954 135.906 26.9768 134.736 26.7395C133.581 26.5022 132.941 26.3836 132.814 26.3836C132.593 26.3836 132.379 26.6209 132.173 27.0954H131.841L131.604 21.4482H132.007C132.703 22.8244 133.589 24.0266 134.665 25.0548C135.756 26.083 136.903 26.5971 138.105 26.5971ZM151.395 26.5971C152.186 26.5971 152.882 26.3836 153.483 25.9565C154.1 25.5294 154.408 24.8887 154.408 24.0345C154.408 23.1645 154.076 22.5001 153.412 22.0414C152.763 21.5827 151.83 21.1872 150.612 20.855C149.409 20.507 148.532 20.2065 147.978 19.9534C147.44 19.7003 146.926 19.3681 146.436 18.9568C145.455 18.1342 144.964 16.8608 144.964 15.1366C144.964 13.7288 145.463 12.5186 146.459 11.5063C147.472 10.4939 148.848 9.98768 150.588 9.98768C151.426 9.98768 152.296 10.1142 153.198 10.3673C154.115 10.6046 154.685 10.7232 154.906 10.7232C155.128 10.7232 155.326 10.5651 155.5 10.2487H155.761L155.927 15.0417H155.547C154.788 13.6655 153.989 12.5661 153.151 11.7435C152.328 10.9052 151.426 10.486 150.446 10.486C149.481 10.486 148.729 10.7153 148.191 11.1741C147.654 11.617 147.385 12.2181 147.385 12.9774C147.385 13.7209 147.701 14.2982 148.334 14.7095C148.982 15.105 149.773 15.4293 150.707 15.6824C151.64 15.9355 152.249 16.1095 152.534 16.2044C152.834 16.2993 153.198 16.4337 153.625 16.6077C154.068 16.7659 154.424 16.9399 154.693 17.1298C154.978 17.3038 155.27 17.5331 155.571 17.8179C155.887 18.0868 156.132 18.3873 156.306 18.7195C156.733 19.4788 156.947 20.3805 156.947 21.4245C156.947 23.1329 156.409 24.5091 155.334 25.5531C154.274 26.5813 152.874 27.0954 151.134 27.0954C150.232 27.0954 149.196 26.9768 148.025 26.7395C146.871 26.5022 146.23 26.3836 146.103 26.3836C145.882 26.3836 145.668 26.6209 145.463 27.0954H145.131L144.893 21.4482H145.297C145.993 22.8244 146.879 24.0266 147.954 25.0548C149.046 26.083 150.192 26.5971 151.395 26.5971Z" fill="#392F2F"/>
<path d="M14.6085 2.74903C15.2784 2.06805 16.3761 2.06801 17.046 2.74903C17.5728 3.28481 18.3882 3.41416 19.0547 3.06739C19.9023 2.62657 20.9464 2.96566 21.3731 3.82032C21.7086 4.49266 22.4445 4.86796 23.1856 4.74415C24.1279 4.58697 25.0157 5.23203 25.1573 6.17677C25.2686 6.91986 25.8527 7.503 26.5958 7.61427C27.5406 7.75585 28.1856 8.64462 28.0284 9.58693C27.9046 10.328 28.2799 11.064 28.9522 11.3994C29.8069 11.8262 30.146 12.8702 29.7051 13.7178C29.3584 14.3844 29.4877 15.1998 30.0235 15.7266C30.7045 16.3965 30.7045 17.4942 30.0235 18.1641C29.4877 18.6909 29.3584 19.5063 29.7051 20.1729C30.146 21.0204 29.8068 22.0644 28.9522 22.4912C28.2799 22.8267 27.9046 23.5626 28.0284 24.3037C28.1856 25.246 27.5406 26.1348 26.5958 26.2764C25.8527 26.3876 25.2686 26.9708 25.1573 27.7139C25.0157 28.6587 24.1279 29.3037 23.1856 29.1465C22.4445 29.0227 21.7086 29.398 21.3731 30.0703C20.9464 30.925 19.9023 31.2641 19.0547 30.8233C18.3882 30.4765 17.5728 30.6058 17.046 31.1416C16.3761 31.8227 15.2784 31.8226 14.6085 31.1416C14.0817 30.6058 13.2662 30.4765 12.5997 30.8233C11.752 31.2642 10.707 30.9253 10.2803 30.0703C9.94488 29.398 9.20992 29.0227 8.46881 29.1465C7.52644 29.3038 6.6377 28.6588 6.49615 27.7139C6.38489 26.9708 5.80175 26.3876 5.05865 26.2764C4.11376 26.1348 3.46877 25.2461 3.62604 24.3037C3.74984 23.5626 3.37455 22.8267 2.70221 22.4912C1.84748 22.0645 1.50836 21.0204 1.94928 20.1729C2.29604 19.5063 2.16669 18.6909 1.63092 18.1641C0.949862 17.4942 0.949838 16.3965 1.63092 15.7266C2.16669 15.1998 2.29604 14.3844 1.94928 13.7178C1.5084 12.8702 1.84748 11.8262 2.70221 11.3994C3.37455 11.064 3.74984 10.328 3.62604 9.58693C3.46882 8.64457 4.11378 7.75579 5.05865 7.61427C5.80175 7.503 6.38489 6.91986 6.49615 6.17677C6.63773 5.23193 7.52647 4.58689 8.46881 4.74415C9.20992 4.86796 9.94488 4.49266 10.2803 3.82032C10.707 2.96538 11.752 2.62644 12.5997 3.06739C13.2662 3.41416 14.0817 3.28481 14.6085 2.74903Z" fill="#392F2F"/>
<path d="M16.0329 12.5831C17.745 12.6901 19.0569 14.2061 18.9483 15.9523L18.7827 18.6105C18.674 20.3567 17.1843 21.698 15.4723 21.5912C13.76 21.4844 12.4482 19.9682 12.557 18.222L12.7224 15.5638C12.831 13.8177 14.3207 12.4763 16.0329 12.5831Z" fill="white"/>
<path d="M15.9955 21.7957C15.9492 21.793 15.9042 21.7706 15.8716 21.7294C15.8561 21.7096 14.3326 19.7234 15.657 16.8788C16.9347 14.1347 15.6791 12.7852 15.625 12.7292C15.5544 12.6559 15.5516 12.5331 15.6191 12.4549C15.6868 12.3768 15.7986 12.3719 15.8696 12.4446C15.932 12.5081 17.3785 14.0348 15.9736 17.0521C14.7608 19.6572 16.0855 21.4017 16.1425 21.4746C16.2058 21.5556 16.1966 21.6783 16.1219 21.7485C16.0854 21.7828 16.0399 21.7983 15.9955 21.7957Z" fill="#392F2F"/>
<path d="M23.9435 16.9698C23.9434 16.9698 23.9431 16.9698 23.943 16.9698L21.0129 17.1195C20.9502 17.1228 20.8971 17.0805 20.8943 17.0253C20.8915 16.9702 20.94 16.9229 21.0024 16.9195C21.0025 16.9195 21.0028 16.9195 21.0029 16.9194L23.933 16.7697C23.9958 16.7664 24.0488 16.8087 24.0516 16.8638C24.0544 16.919 24.006 16.9663 23.9435 16.9698Z" fill="white"/>
<path d="M22.3934 19.8426C22.3769 19.8435 22.3598 19.8412 22.3434 19.8351L20.6194 19.1921C20.5583 19.1693 20.5285 19.1038 20.5528 19.0457C20.577 18.9874 20.6463 18.959 20.7071 18.9814L22.4312 19.6245C22.4922 19.6473 22.5221 19.7128 22.4978 19.7709C22.48 19.8134 22.4383 19.8402 22.3934 19.8426Z" fill="white"/>
<path d="M20.6985 15.2679C20.6509 15.2705 20.6046 15.2462 20.5841 15.2032C20.5576 15.1478 20.5846 15.0823 20.6444 15.0572L22.2961 14.362C22.3553 14.3371 22.4257 14.3613 22.4525 14.4171C22.479 14.4724 22.452 14.5379 22.3921 14.5632L20.7405 15.2582C20.7269 15.264 20.7126 15.2672 20.6985 15.2679Z" fill="white"/>
<path d="M11.1281 17.5185C11.1279 17.5185 11.1277 17.5185 11.1276 17.5185L8.19731 17.6652C8.13462 17.6684 8.08077 17.6124 8.07706 17.5403C8.07336 17.4684 8.12094 17.4075 8.1835 17.4041C8.18361 17.4041 8.18384 17.4041 8.18395 17.4041L11.1142 17.2574C11.177 17.2542 11.2308 17.3102 11.2345 17.3822C11.2382 17.4542 11.1906 17.515 11.1281 17.5185Z" fill="white"/>
<path d="M11.3299 16.1117C11.3133 16.1126 11.2962 16.1096 11.2799 16.1026L9.55006 15.3547C9.48885 15.3283 9.45843 15.2531 9.48231 15.1868C9.50619 15.1206 9.57503 15.0885 9.63624 15.1148L11.3661 15.8627C11.4273 15.8891 11.4576 15.9643 11.4338 16.0306C11.4164 16.079 11.3749 16.1092 11.3299 16.1117Z" fill="white"/>
<path d="M8.94288 20.317C8.89881 20.3194 8.8557 20.2949 8.83649 20.252C8.81163 20.1964 8.83638 20.131 8.89189 20.1061L10.4232 19.4175C10.4783 19.3927 10.5437 19.4174 10.5687 19.4731C10.5936 19.5286 10.5688 19.594 10.5133 19.6189L8.98193 20.3076C8.96934 20.3132 8.95606 20.3163 8.94288 20.317Z" fill="white"/>
<path d="M24.8959 23.603C26.2771 21.6373 26.9869 19.2782 26.92 16.8767C26.853 14.4752 26.0128 12.1594 24.5242 10.2737C23.0357 8.38792 20.9783 7.03292 18.658 6.41013C16.3376 5.78735 13.8783 5.93003 11.6455 6.81696" stroke="white" stroke-width="0.494329" stroke-linecap="round"/>
<path d="M4.99178 17.0676L4.74462 17.0695L4.99178 17.0676ZM7.25247 23.7181L7.44955 23.569L7.25247 23.7181ZM13.0388 27.7004L13.1077 27.463L13.0388 27.7004ZM20.1446 27.6681C20.2725 27.6203 20.3374 27.4779 20.2896 27.35C20.2418 27.2222 20.0994 27.1573 19.9715 27.205L20.1446 27.6681ZM7.15247 10.384L6.95317 10.2378C5.50078 12.2179 4.72621 14.6139 4.74462 17.0695L4.99178 17.0676L5.23894 17.0658C5.22132 14.7166 5.96232 12.4245 7.35177 10.5301L7.15247 10.384ZM4.99178 17.0676L4.74462 17.0695C4.76304 19.5251 5.57346 21.9092 7.05538 23.8673L7.25247 23.7181L7.44955 23.569C6.03185 21.6957 5.25656 19.415 5.23894 17.0658L4.99178 17.0676ZM7.25247 23.7181L7.05538 23.8673C8.53731 25.8254 10.6116 27.253 12.9699 27.9378L13.0388 27.7004L13.1077 27.463C10.8517 26.8079 8.86725 25.4422 7.44955 23.569L7.25247 23.7181ZM13.0388 27.7004L12.9699 27.9378C15.3281 28.6225 17.8444 28.528 20.1446 27.6681L20.0581 27.4366L19.9715 27.205C17.771 28.0277 15.3638 28.1181 13.1077 27.463L13.0388 27.7004Z" fill="white"/>
</svg>
