<svg width="158" height="133" viewBox="0 0 158 133" fill="none" xmlns="http://www.w3.org/2000/svg">
<rect width="158" height="133" fill="#DFDFDF"/>
<path d="M70.8212 93.5484H87.178C100.809 93.5484 106.261 88.1387 106.261 74.6145V58.3855C106.261 44.8613 100.809 39.4517 87.178 39.4517H70.8212C57.1905 39.4517 51.7383 44.8613 51.7383 58.3855V74.6145C51.7383 88.1387 57.1905 93.5484 70.8212 93.5484Z" stroke="white" stroke-width="1.42233" stroke-linecap="round" stroke-linejoin="round"/>
<path d="M53.5645 85.2986L67.0043 76.3456C69.1579 74.912 72.2657 75.0743 74.2013 76.7243L75.1009 77.5087C77.2273 79.3209 80.6622 79.3209 82.7886 77.5087L94.1293 67.8524C96.2557 66.0402 99.6906 66.0402 101.817 67.8524L106.261 71.6392M70.8209 61.0903C72.2669 61.0903 73.6537 60.5204 74.6762 59.5059C75.6987 58.4914 76.2731 57.1154 76.2731 55.6807C76.2731 54.2459 75.6987 52.87 74.6762 51.8555C73.6537 50.8409 72.2669 50.271 70.8209 50.271C69.3748 50.271 67.988 50.8409 66.9655 51.8555C65.943 52.87 65.3686 54.2459 65.3686 55.6807C65.3686 57.1154 65.943 58.4914 66.9655 59.5059C67.988 60.5204 69.3748 61.0903 70.8209 61.0903Z" stroke="white" stroke-width="1.42233" stroke-linecap="round" stroke-linejoin="round"/>
</svg>
